<svg xmlns="http://www.w3.org/2000/svg" xmlns:xlink="http://www.w3.org/1999/xlink" version="1.1" id="Camada_1" x="0px" y="0px" viewBox="0 0 718.5 132.1" style="enable-background:new 0 0 718.5 132.1;" xml:space="preserve">
<style type="text/css">
	.logo-st0{fill:#7230F6;}
</style>
<path class="logo-st0" d="M308.2,38.2c-9.8,0-18,3.3-24.5,9.8c-6.4,6.3-9.9,15-9.7,24c-0.2,9,3.3,17.7,9.7,24c6.5,6.5,14.7,9.7,24.5,9.7  s18-3.2,24.5-9.7c6.4-6.3,10-14.9,9.8-23.9c0.2-9-3.3-17.7-9.8-24C326.2,41.5,318.1,38.3,308.2,38.2z M319.8,85.1  c-5.9,6.4-15.8,6.8-22.2,0.9l0,0c-0.3-0.3-0.6-0.6-0.9-0.9c-3-3.3-4.5-7.7-4.5-13s1.5-9.7,4.5-13.1c5.8-6.4,15.6-6.8,22-1.1  c0.4,0.3,0.7,0.7,1.1,1.1c3,3.4,4.5,7.8,4.5,13.1S322.8,81.8,319.8,85.1z"></path>
<path class="logo-st0" d="M390.3,38.5h-4.9c-7,0-12.7,1.5-17.4,6.5s-7.1,11.6-7.1,20v40.8h18.4v-38c0-10.1,3.6-15.2,10.7-15.4l-0.1-13.9  H390.3z"></path>
<path class="logo-st0" d="M56.1,30.7c-2-3.6-6.8-6.6-10.6-6.6H4.2c-3.8,0-5.3,2.9-3.2,6.6l27,52.4c2,3.6,6.8,6.6,10.6,6.6H80  c3.8,0,5.3-2.9,3.2-6.6L56.1,30.7z"></path>
<path class="logo-st0" d="M687.9,45c-4.8,5-7.2,11.7-7.2,20v40.9h18.8v-38c0-10.3,3.8-15.5,11.2-15.5h7.6l0.2-13.9h-12.9  C698.5,38.5,692.7,40,687.9,45z"></path>
<path class="logo-st0" d="M237.5,89.6c-4.4,0.1-8.7-1.6-12-4.6c-3.4-3.1-5.1-7.4-5.1-13s1.7-9.9,5.1-13c3.3-3.1,7.7-4.8,12.2-4.7  c6.4,0.1,12.5,3,16.6,7.9l9.4-12.4c-3.5-3.8-7.8-6.7-12.6-8.6c-4.5-1.9-9.3-2.9-14.1-2.9c-9-0.1-17.6,3.3-24.1,9.4  c-6.8,6.3-10.2,14.5-10.2,24.5s3.3,18.1,10,24.3s14.9,9.3,24.6,9.3c9.7,0,18.8-4.4,27.1-13.1l-10.7-12.2  C248.9,86.6,243.5,89.6,237.5,89.6z"></path>
<path class="logo-st0" d="M171.5,0h-42.2c-3.6,0-8.1,2.9-10,6.6L82.1,81.4c-1.9,3.6-1.6,5.6,1,10.5l18.6,36.2c4.1,7.8,9.4,2.6,12.2-2.7  L174.5,6.6C176.5,2.9,175.1,0,171.5,0z"></path>
<path class="logo-st0" d="M558.4,46.4c-6.2-5.4-13.8-8.1-22.7-8.2c-8.6-0.1-16.9,3.2-23.2,9.1c-6.5,6.1-9.8,14.3-9.8,24.6  s3.2,18.5,9.6,24.6c6.4,6.1,14.5,9.2,24.4,9.2c9.6,0.1,18.9-3.7,25.7-10.5l-10.2-11.1c-4,4.3-9.7,6.6-15.6,6.4  c-3.8,0-7.5-1.2-10.6-3.4c-3-2-5-5.2-5.5-8.8h47.2v-9.7C567.7,59.3,564.6,51.8,558.4,46.4z M521.1,65.5c0.4-3.6,2.3-6.8,5.2-8.9  c2.8-2.1,6.3-3.3,9.8-3.3c3.3-0.1,6.5,1,9.1,3.2c2.6,2.3,4.1,5.5,4.3,9H521.1z"></path>
<path class="logo-st0" d="M589.2,45c-4.8,5-7.2,11.7-7.2,20v40.9h18.7v-38c0-10.3,3.8-15.5,11.2-15.5h7.6l0.2-13.9h-12.9  C599.8,38.5,594,40,589.2,45z"></path>
<polygon class="logo-st0" points="652.9,19.8 634.7,19.8 634.7,105.4 652.9,105.8 652.9,53.2 668.5,53.2 668.5,40.1 652.9,40.1 "></polygon>
<polygon class="logo-st0" points="460.9,80.5 444.8,39.2 426,39.2 451.7,104.8 470.2,104.8 470.2,104.8 495.8,39.2 477,39.2 "></polygon>
<path class="logo-st0" d="M410.6,45c-4.7-5-10.5-6.5-17.5-6.5h-4.8h0.3l-0.2,13.9h-0.1H388l0,0h0.1c7.4,0,11.1,5.2,11.1,15.5V106h18.5V65  C417.7,56.7,415.3,50,410.6,45z"></path>
</svg>